PathFileType	4	(X/Y/Z)	c:/Users/goper/Files/vsCode/490R/osim_files/C11/C11_SSWS_03.trc
DataRate	CameraRate	NumFrames	NumMarkers	Units                	OrigDataRate	OrigDataStartFrame	OrigNumFrames
120.00	120.00	6	36	mm	120.0	744	991
                Frame#	Time	LPSI			LASI			LTH1			LTH2			LTH3			LTH4			LLFE			LMFE			LSH1			LSH2			LSH3			LSH4			LLMA			LMMA			LCAL			LMTP			LTOE			LMTP			RPSI			RASI			RTH1			RTH2			RTH3			RTH4			RLFE			RMFE			RSH1			RSH2			RSH3			RSH4			RLMA			RMMA			RCAL			RMTP			RTOE			RMTP		
		X1	Y1	Z1	X2	Y2	Z2	X3	Y3	Z3	X4	Y4	Z4	X5	Y5	Z5	X6	Y6	Z6	X7	Y7	Z7	X8	Y8	Z8	X9	Y9	Z9	X10	Y10	Z10	X11	Y11	Z11	X12	Y12	Z12	X13	Y13	Z13	X14	Y14	Z14	X15	Y15	Z15	X16	Y16	Z16	X17	Y17	Z17	X18	Y18	Z18	X19	Y19	Z19	X20	Y20	Z20	X21	Y21	Z21	X22	Y22	Z22	X23	Y23	Z23	X24	Y24	Z24	X25	Y25	Z25	X26	Y26	Z26	X27	Y27	Z27	X28	Y28	Z28	X29	Y29	Z29	X30	Y30	Z30	X31	Y31	Z31	X32	Y32	Z32	X33	Y33	Z33	X34	Y34	Z34	X35	Y35	Z35	X36	Y36	Z36

744	6.19167	-1409.45569	952.81213	405.10522	-1590.31494	961.45166	455.44635	-1636.53857	586.50531	513.78540	-1661.70642	546.09253	512.67340	-1691.26831	612.42914	520.70618	-1707.82690	568.66907	514.65094	-1713.09314	498.10745	514.85950	-1719.59229	503.25613	404.66934	-1693.79395	384.60770	523.94708	-1707.11426	341.69092	523.36621	-1754.67566	398.15192	529.48749	-1759.75073	353.73041	529.11365	-1794.58276	94.56493	479.49185	-1822.95471	115.43680	385.70923	-1740.44885	57.97968	421.78143	-1910.72791	47.95118	505.37143	-1982.48767	79.46088	441.75766	-1942.99536	59.26117	395.64673	-1406.56433	965.47253	318.71283	-1565.00940	943.19989	222.20746	-1406.97815	600.23517	203.11467	-1402.82959	557.13477	209.59331	-1470.22095	585.91443	207.71587	-1455.56702	545.46844	212.02342	-1397.98181	468.65552	226.77824	-1380.25366	463.82108	338.06754	-1280.09253	415.38889	215.92966	-1255.44983	376.84061	219.21751	-1331.48157	375.69293	221.63799	-1297.28394	341.79175	221.30321	-1107.09045	150.46051	271.00204	-1139.79858	149.07805	364.76324	-1038.63794	142.78084	327.86871	-1227.60718	48.94139	338.97592	-1233.14490	55.52773	287.79770	-1182.40674	47.21755	229.97235
745	6.20000	-1422.22559	953.22131	405.69086	-1603.03394	962.29352	456.58646	-1650.35779	588.14630	515.12317	-1675.27319	547.79163	513.96173	-1705.00708	614.12396	521.31451	-1721.50806	570.33417	515.28937	-1726.25269	499.44150	515.33582	-1731.46411	503.90359	405.14926	-1705.14270	386.35275	525.78400	-1717.37476	343.61945	525.77600	-1766.56567	398.71777	530.02533	-1770.39050	354.40762	529.90320	-1797.34839	94.18917	479.53015	-1826.34387	113.99831	386.48953	-1742.19836	59.11773	421.74554	-1912.33960	44.80250	506.39670	-1984.71155	71.95425	441.91257	-1945.22754	54.00227	396.15091	-1419.71289	965.39935	319.26260	-1578.33179	942.72266	223.58380	-1424.06482	597.69086	203.41174	-1420.22974	554.57318	210.01099	-1487.28381	584.23901	208.44258	-1473.13354	543.62280	212.67229	-1415.46582	467.04617	226.73686	-1398.34741	461.45612	338.02158	-1297.07178	416.63773	216.20277	-1271.03857	378.96970	219.32970	-1347.01733	375.06921	221.62415	-1311.77991	342.54987	221.16487	-1115.37146	157.20924	269.99564	-1148.08459	154.75516	363.45493	-1047.13281	154.12167	326.41830	-1229.53796	49.28909	338.87015	-1235.33948	55.40321	287.63522	-1183.83374	49.39674	229.36447
746	6.20833	-1434.73730	953.50336	406.24066	-1615.42102	963.26801	457.88791	-1663.46838	589.59808	516.44312	-1688.33228	549.26093	515.10565	-1718.10510	615.53430	521.92706	-1734.67859	571.72046	515.86359	-1738.99414	500.55994	515.77051	-1742.87122	505.05557	405.78564	-1716.29126	388.17551	527.88043	-1727.65771	345.10452	528.01245	-1778.00244	399.08194	530.61823	-1781.06384	354.58469	530.46484	-1799.23291	93.99084	479.40570	-1828.60522	113.46571	386.39355	-1743.25317	59.76621	422.00531	-1913.58704	43.97749	507.33679	-1986.78040	67.73470	442.04095	-1946.42651	50.78875	396.11688	-1432.59338	965.24689	319.77991	-1591.85120	942.33856	225.19254	-1441.55457	595.21674	203.87666	-1438.35632	552.09064	210.24094	-1504.98926	582.56934	209.10962	-1491.46204	541.69116	213.20680	-1434.01416	465.15955	226.58432	-1417.81323	458.81128	337.95715	-1315.23096	417.94107	216.24887	-1288.53784	380.92401	219.30591	-1364.35901	375.33469	221.32280	-1327.46863	343.38641	220.90128	-1125.13696	164.18085	268.92194	-1157.66089	160.52467	362.20245	-1056.35742	165.94928	326.19379	-1231.40356	49.84084	338.92538	-1237.80701	55.43913	287.46457	-1185.95386	51.89893	229.23854
747	6.21667	-1447.16846	953.70349	406.67743	-1627.47314	964.19354	459.11560	-1676.06946	590.99622	517.63916	-1700.67188	550.59564	516.08429	-1730.65820	616.86383	522.67133	-1747.02185	573.05646	516.51678	-1750.81055	501.40503	516.17731	-1754.77637	506.59436	406.31375	-1727.27551	390.20364	530.13843	-1737.45117	346.40988	530.20721	-1788.92383	399.26764	530.56897	-1791.39978	354.82446	530.28168	-1800.37878	94.08102	478.91995	-1829.34692	113.07302	385.67093	-1743.76782	59.89586	422.14871	-1913.89307	43.76489	506.77524	-1987.35754	65.51711	440.68405	-1946.89563	48.69748	394.93051	-1445.25586	965.06848	320.27753	-1605.19434	942.14362	226.83102	-1460.17236	592.65314	204.46910	-1457.57629	549.22412	210.60109	-1523.61743	581.02161	209.96379	-1510.57910	540.00043	213.69901	-1453.91589	463.14310	225.72043	-1438.19434	455.96744	337.80688	-1335.20178	418.85849	216.57919	-1306.37854	383.16876	219.41475	-1381.94177	373.56097	221.14473	-1344.29871	344.37433	220.50629	-1135.91711	171.88292	267.68884	-1168.67334	166.46953	360.78641	-1067.24084	178.61807	325.23593	-1233.86414	50.76218	338.96939	-1240.56836	55.84477	287.36740	-1188.60303	54.99213	229.31801
748	6.22500	-1459.04944	954.21741	407.23120	-1639.24292	965.55298	460.24567	-1687.85034	592.38153	518.64734	-1712.40723	552.00708	516.81299	-1742.62292	618.09662	523.59674	-1758.82910	574.28882	517.03369	-1762.57080	502.46356	516.06067	-1766.28662	507.81003	406.28082	-1737.64526	392.20709	532.29108	-1746.78967	348.14566	532.20123	-1799.46936	399.65103	529.87756	-1800.38025	354.81119	530.07910	-1801.47534	94.25894	478.26379	-1830.03625	112.72462	385.05728	-1744.20007	60.12856	422.15756	-1914.39429	44.07836	506.65741	-1987.87915	63.68905	439.77042	-1947.34314	47.12256	394.12152	-1457.44385	965.10638	320.69998	-1617.37512	941.91968	227.97998	-1478.96069	590.13995	204.88562	-1477.18591	546.51416	210.93379	-1542.54712	579.53833	210.39490	-1530.39697	538.35797	214.07970	-1474.23035	461.33469	225.21504	-1459.71680	452.90353	337.77411	-1355.63281	420.31888	216.72250	-1325.81384	385.54306	219.49170	-1401.03857	373.59525	220.62955	-1362.35620	345.58963	220.05350	-1148.00500	179.78400	267.02695	-1181.11633	172.61623	359.43878	-1080.79724	191.74658	324.73117	-1237.13538	52.40283	338.88318	-1244.11584	56.80519	287.23022	-1192.07532	59.04356	229.37784
749	6.23333	-1470.84570	955.07593	407.79431	-1650.73999	967.12073	461.30936	-1698.74268	593.50354	519.22119	-1723.08936	553.03436	516.88281	-1753.57446	618.97833	524.27673	-1769.59570	575.17365	517.33197	-1774.62170	503.45035	514.82031	-1776.91321	509.22128	406.10941	-1747.62256	394.45605	534.13544	-1755.80359	350.18344	533.98248	-1809.47437	400.27539	529.06256	-1809.18982	355.40732	529.62848	-1802.12805	94.49225	477.93155	-1830.74438	112.56305	384.75204	-1744.59106	60.48429	422.12717	-1915.02734	44.14808	507.16608	-1988.57764	62.22272	439.89600	-1947.95361	46.37976	393.97504	-1469.39038	965.29724	321.19583	-1629.21704	941.92267	229.35826	-1498.40601	587.56482	205.29738	-1497.35352	543.84009	211.16408	-1562.10620	578.30725	210.93906	-1550.86389	536.93829	214.49733	-1495.59497	459.65442	225.08049	-1482.22656	449.72864	337.84897	-1377.04260	422.12323	216.77460	-1346.09473	388.20850	219.53391	-1420.99866	373.94257	219.81770	-1381.05176	347.39438	219.39450	-1161.66785	188.35759	265.90680	-1194.77209	179.25475	358.08221	-1095.99048	205.51183	324.15634	-1240.97034	54.75021	338.52490	-1248.30371	58.52567	286.94257	-1196.09802	64.27754	229.23508
